<svg xmlns="http://www.w3.org/2000/svg" xmlns:xlink="http://www.w3.org/1999/xlink" width="500" zoomAndPan="magnify" viewBox="0 0 375 374.999991" height="500" preserveAspectRatio="xMidYMid meet" version="1.0"><defs><clipPath id="8d4404c93d"><path d="M 128.296875 76.992188 L 320 76.992188 L 320 298.242188 L 128.296875 298.242188 Z M 128.296875 76.992188 " clip-rule="nonzero"/></clipPath><clipPath id="422459a95e"><path d="M 54.625 76.992188 L 246 76.992188 L 246 298.242188 L 54.625 298.242188 Z M 54.625 76.992188 " clip-rule="nonzero"/></clipPath><clipPath id="c4cea1ff36"><path d="M 184.65625 197.605469 L 264.074219 197.605469 L 264.074219 298 L 184.65625 298 Z M 184.65625 197.605469 " clip-rule="nonzero"/></clipPath><clipPath id="2841c50c49"><path d="M 192.15625 197.605469 L 256.503906 197.605469 C 258.492188 197.605469 260.402344 198.394531 261.808594 199.800781 C 263.214844 201.207031 264.003906 203.113281 264.003906 205.101562 L 264.003906 290.496094 C 264.003906 292.484375 263.214844 294.394531 261.808594 295.800781 C 260.402344 297.207031 258.492188 297.996094 256.503906 297.996094 L 192.15625 297.996094 C 190.167969 297.996094 188.257812 297.207031 186.851562 295.800781 C 185.445312 294.394531 184.65625 292.484375 184.65625 290.496094 L 184.65625 205.101562 C 184.65625 203.113281 185.445312 201.207031 186.851562 199.800781 C 188.257812 198.394531 190.167969 197.605469 192.15625 197.605469 Z M 192.15625 197.605469 " clip-rule="nonzero"/></clipPath></defs><rect x="-37.5" width="450" fill="#ffffff" y="-37.499999" height="449.999989" fill-opacity="1"/><rect x="-37.5" width="450" fill="#ffffff" y="-37.499999" height="449.999989" fill-opacity="1"/><g clip-path="url(#8d4404c93d)"><path fill="#c6824b" d="M 286.742188 298.222656 L 161.21875 298.222656 C 160.144531 298.21875 159.074219 298.164062 158.003906 298.058594 C 156.9375 297.953125 155.875 297.792969 154.820312 297.582031 C 153.769531 297.371094 152.726562 297.109375 151.699219 296.796875 C 150.671875 296.484375 149.664062 296.121094 148.671875 295.710938 C 147.679688 295.296875 146.707031 294.835938 145.761719 294.328125 C 144.8125 293.820312 143.894531 293.269531 143 292.671875 C 142.109375 292.074219 141.246094 291.433594 140.417969 290.75 C 139.585938 290.066406 138.792969 289.347656 138.03125 288.585938 C 137.273438 287.824219 136.550781 287.027344 135.871094 286.199219 C 135.1875 285.367188 134.550781 284.503906 133.953125 283.609375 C 133.355469 282.714844 132.804688 281.792969 132.296875 280.84375 C 131.789062 279.898438 131.332031 278.925781 130.917969 277.933594 C 130.507812 276.9375 130.144531 275.925781 129.832031 274.898438 C 129.519531 273.867188 129.257812 272.828125 129.046875 271.773438 C 128.835938 270.71875 128.679688 269.652344 128.574219 268.582031 C 128.464844 267.511719 128.414062 266.441406 128.410156 265.363281 L 128.410156 177.242188 C 128.40625 175.167969 128.601562 173.109375 128.996094 171.070312 C 129.390625 169.035156 129.972656 167.050781 130.75 165.128906 C 131.527344 163.203125 132.484375 161.371094 133.613281 159.632812 C 134.746094 157.894531 136.035156 156.28125 137.476562 154.792969 L 204.628906 85.246094 C 205.253906 84.59375 205.90625 83.976562 206.59375 83.390625 C 207.28125 82.808594 207.996094 82.257812 208.738281 81.746094 C 209.480469 81.234375 210.246094 80.761719 211.035156 80.324219 C 211.824219 79.890625 212.632812 79.496094 213.464844 79.140625 C 214.292969 78.789062 215.136719 78.476562 216 78.210938 C 216.859375 77.941406 217.730469 77.714844 218.613281 77.535156 C 219.496094 77.355469 220.386719 77.21875 221.285156 77.128906 C 222.179688 77.039062 223.078125 76.992188 223.980469 76.992188 C 224.882812 76.992188 225.78125 77.039062 226.679688 77.128906 C 227.574219 77.21875 228.464844 77.355469 229.347656 77.535156 C 230.230469 77.714844 231.101562 77.941406 231.964844 78.210938 C 232.824219 78.476562 233.667969 78.789062 234.5 79.140625 C 235.328125 79.496094 236.136719 79.890625 236.925781 80.324219 C 237.714844 80.761719 238.480469 81.234375 239.222656 81.746094 C 239.964844 82.257812 240.679688 82.808594 241.367188 83.390625 C 242.054688 83.976562 242.710938 84.59375 243.335938 85.246094 L 316.742188 161.269531 C 317.203125 161.742188 317.613281 162.253906 317.96875 162.804688 C 318.328125 163.359375 318.628906 163.941406 318.871094 164.550781 C 319.117188 165.164062 319.296875 165.792969 319.417969 166.441406 C 319.535156 167.089844 319.589844 167.742188 319.582031 168.398438 C 319.574219 169.058594 319.5 169.710938 319.359375 170.351562 C 319.222656 170.996094 319.023438 171.621094 318.761719 172.226562 C 318.5 172.832031 318.183594 173.402344 317.808594 173.945312 C 317.433594 174.484375 317.011719 174.984375 316.539062 175.445312 C 316.066406 175.902344 315.554688 176.308594 315 176.664062 C 314.449219 177.019531 313.863281 177.320312 313.253906 177.5625 C 312.640625 177.800781 312.011719 177.980469 311.363281 178.097656 C 310.71875 178.214844 310.066406 178.265625 309.40625 178.253906 C 308.75 178.242188 308.101562 178.164062 307.457031 178.023438 C 306.816406 177.882812 306.195312 177.679688 305.589844 177.414062 C 304.988281 177.148438 304.417969 176.828125 303.878906 176.453125 C 303.339844 176.074219 302.84375 175.648438 302.386719 175.171875 L 228.972656 99.175781 C 228.652344 98.835938 228.300781 98.527344 227.917969 98.257812 C 227.535156 97.988281 227.128906 97.761719 226.703125 97.574219 C 226.273438 97.390625 225.828125 97.25 225.371094 97.152344 C 224.910156 97.058594 224.449219 97.011719 223.980469 97.011719 C 223.511719 97.011719 223.050781 97.058594 222.59375 97.152344 C 222.132812 97.25 221.691406 97.390625 221.261719 97.574219 C 220.832031 97.761719 220.425781 97.988281 220.042969 98.257812 C 219.660156 98.527344 219.308594 98.835938 218.988281 99.175781 L 151.832031 168.695312 C 150.726562 169.84375 149.875 171.160156 149.285156 172.644531 C 148.691406 174.125 148.398438 175.667969 148.410156 177.265625 L 148.410156 265.363281 C 148.410156 266.207031 148.492188 267.042969 148.660156 267.871094 C 148.824219 268.699219 149.070312 269.503906 149.390625 270.28125 C 149.714844 271.0625 150.109375 271.800781 150.578125 272.503906 C 151.046875 273.203125 151.578125 273.855469 152.175781 274.449219 C 152.769531 275.046875 153.417969 275.582031 154.121094 276.050781 C 154.820312 276.519531 155.558594 276.914062 156.335938 277.238281 C 157.117188 277.5625 157.917969 277.804688 158.742188 277.972656 C 159.570312 278.136719 160.40625 278.21875 161.246094 278.222656 L 286.773438 278.222656 C 287.425781 278.222656 288.078125 278.285156 288.71875 278.414062 C 289.363281 278.542969 289.988281 278.730469 290.59375 278.984375 C 291.199219 279.234375 291.773438 279.542969 292.320312 279.90625 C 292.863281 280.269531 293.367188 280.6875 293.832031 281.148438 C 294.296875 281.613281 294.710938 282.121094 295.074219 282.664062 C 295.4375 283.210938 295.746094 283.789062 295.996094 284.394531 C 296.246094 285 296.4375 285.625 296.566406 286.269531 C 296.691406 286.914062 296.757812 287.5625 296.757812 288.222656 C 296.757812 288.878906 296.691406 289.527344 296.566406 290.171875 C 296.4375 290.816406 296.246094 291.441406 295.996094 292.046875 C 295.746094 292.65625 295.4375 293.230469 295.074219 293.777344 C 294.710938 294.324219 294.296875 294.828125 293.832031 295.292969 C 293.367188 295.757812 292.863281 296.171875 292.320312 296.535156 C 291.773438 296.898438 291.199219 297.207031 290.59375 297.460938 C 289.988281 297.710938 289.363281 297.902344 288.71875 298.027344 C 288.078125 298.15625 287.425781 298.21875 286.773438 298.222656 Z M 286.742188 298.222656 " fill-opacity="1" fill-rule="nonzero"/></g><g clip-path="url(#422459a95e)"><path fill="#c6824b" d="M 213.074219 298.222656 L 87.546875 298.222656 C 86.476562 298.21875 85.402344 298.164062 84.335938 298.058594 C 83.265625 297.953125 82.203125 297.792969 81.152344 297.582031 C 80.097656 297.371094 79.058594 297.109375 78.03125 296.796875 C 77.003906 296.484375 75.992188 296.121094 75 295.710938 C 74.007812 295.296875 73.039062 294.835938 72.089844 294.328125 C 71.144531 293.820312 70.222656 293.269531 69.332031 292.671875 C 68.4375 292.074219 67.578125 291.433594 66.746094 290.75 C 65.917969 290.066406 65.121094 289.347656 64.363281 288.585938 C 63.601562 287.824219 62.882812 287.027344 62.199219 286.199219 C 61.519531 285.367188 60.878906 284.503906 60.28125 283.609375 C 59.6875 282.714844 59.132812 281.792969 58.625 280.84375 C 58.121094 279.898438 57.660156 278.925781 57.25 277.933594 C 56.835938 276.9375 56.476562 275.925781 56.164062 274.898438 C 55.851562 273.867188 55.589844 272.828125 55.378906 271.773438 C 55.167969 270.71875 55.007812 269.652344 54.902344 268.582031 C 54.796875 267.511719 54.742188 266.441406 54.742188 265.363281 L 54.742188 177.242188 C 54.738281 175.167969 54.929688 173.109375 55.324219 171.070312 C 55.71875 169.035156 56.304688 167.050781 57.082031 165.128906 C 57.859375 163.203125 58.8125 161.371094 59.945312 159.632812 C 61.074219 157.894531 62.363281 156.28125 63.808594 154.792969 L 130.957031 85.246094 C 131.582031 84.59375 132.238281 83.976562 132.925781 83.390625 C 133.613281 82.808594 134.324219 82.257812 135.066406 81.746094 C 135.808594 81.234375 136.574219 80.761719 137.367188 80.324219 C 138.15625 79.890625 138.964844 79.496094 139.792969 79.140625 C 140.625 78.789062 141.46875 78.476562 142.328125 78.210938 C 143.1875 77.941406 144.0625 77.714844 144.945312 77.535156 C 145.828125 77.355469 146.71875 77.21875 147.613281 77.128906 C 148.511719 77.039062 149.410156 76.992188 150.3125 76.992188 C 151.210938 76.992188 152.113281 77.039062 153.007812 77.128906 C 153.90625 77.21875 154.792969 77.355469 155.679688 77.535156 C 156.5625 77.714844 157.433594 77.941406 158.292969 78.210938 C 159.152344 78.476562 160 78.789062 160.828125 79.140625 C 161.65625 79.496094 162.46875 79.890625 163.257812 80.324219 C 164.046875 80.761719 164.8125 81.234375 165.554688 81.746094 C 166.296875 82.257812 167.011719 82.808594 167.695312 83.390625 C 168.382812 83.976562 169.039062 84.59375 169.664062 85.246094 L 243.074219 161.269531 C 243.53125 161.742188 243.941406 162.253906 244.300781 162.804688 C 244.660156 163.359375 244.960938 163.941406 245.203125 164.550781 C 245.445312 165.164062 245.628906 165.792969 245.746094 166.441406 C 245.867188 167.089844 245.921875 167.742188 245.910156 168.398438 C 245.902344 169.058594 245.828125 169.710938 245.691406 170.351562 C 245.550781 170.996094 245.351562 171.621094 245.09375 172.226562 C 244.832031 172.832031 244.511719 173.402344 244.140625 173.945312 C 243.765625 174.484375 243.339844 174.984375 242.867188 175.445312 C 242.394531 175.902344 241.882812 176.308594 241.332031 176.664062 C 240.777344 177.019531 240.195312 177.320312 239.582031 177.5625 C 238.972656 177.800781 238.339844 177.980469 237.695312 178.097656 C 237.046875 178.214844 236.394531 178.265625 235.738281 178.253906 C 235.078125 178.242188 234.429688 178.164062 233.789062 178.023438 C 233.144531 177.882812 232.523438 177.679688 231.921875 177.414062 C 231.320312 177.148438 230.746094 176.828125 230.210938 176.453125 C 229.671875 176.074219 229.171875 175.648438 228.71875 175.171875 L 155.304688 99.175781 C 154.984375 98.835938 154.632812 98.527344 154.25 98.257812 C 153.867188 97.988281 153.460938 97.761719 153.03125 97.574219 C 152.601562 97.390625 152.15625 97.25 151.699219 97.152344 C 151.242188 97.058594 150.777344 97.011719 150.3125 97.011719 C 149.84375 97.011719 149.378906 97.058594 148.921875 97.152344 C 148.464844 97.25 148.019531 97.390625 147.589844 97.574219 C 147.160156 97.761719 146.753906 97.988281 146.371094 98.257812 C 145.988281 98.527344 145.640625 98.835938 145.320312 99.175781 L 78.164062 168.695312 C 77.054688 169.84375 76.207031 171.160156 75.613281 172.644531 C 75.019531 174.125 74.730469 175.667969 74.738281 177.265625 L 74.738281 265.363281 C 74.742188 266.207031 74.824219 267.042969 74.988281 267.871094 C 75.15625 268.699219 75.398438 269.503906 75.722656 270.28125 C 76.042969 271.0625 76.441406 271.800781 76.910156 272.503906 C 77.375 273.203125 77.910156 273.855469 78.503906 274.449219 C 79.101562 275.046875 79.75 275.582031 80.449219 276.050781 C 81.148438 276.519531 81.890625 276.914062 82.667969 277.238281 C 83.445312 277.5625 84.246094 277.804688 85.074219 277.972656 C 85.898438 278.136719 86.734375 278.21875 87.578125 278.222656 L 213.101562 278.222656 C 213.757812 278.222656 214.40625 278.285156 215.050781 278.414062 C 215.691406 278.542969 216.316406 278.730469 216.921875 278.984375 C 217.527344 279.234375 218.105469 279.542969 218.648438 279.90625 C 219.195312 280.269531 219.699219 280.6875 220.164062 281.148438 C 220.625 281.613281 221.039062 282.121094 221.402344 282.664062 C 221.769531 283.210938 222.074219 283.789062 222.328125 284.394531 C 222.578125 285 222.765625 285.625 222.894531 286.269531 C 223.023438 286.914062 223.085938 287.5625 223.085938 288.222656 C 223.085938 288.878906 223.023438 289.527344 222.894531 290.171875 C 222.765625 290.816406 222.578125 291.441406 222.328125 292.046875 C 222.074219 292.65625 221.769531 293.230469 221.402344 293.777344 C 221.039062 294.324219 220.625 294.828125 220.160156 295.292969 C 219.699219 295.757812 219.195312 296.171875 218.648438 296.535156 C 218.105469 296.898438 217.527344 297.207031 216.921875 297.460938 C 216.316406 297.710938 215.691406 297.902344 215.050781 298.027344 C 214.40625 298.15625 213.757812 298.21875 213.101562 298.222656 Z M 213.074219 298.222656 " fill-opacity="1" fill-rule="nonzero"/></g><g clip-path="url(#c4cea1ff36)"><g clip-path="url(#2841c50c49)"><path stroke-linecap="butt" transform="matrix(0.75, 0, 0, 0.75, 184.656628, 197.603718)" fill="none" stroke-linejoin="miter" d="M 9.999497 0.00233403 L 95.796383 0.00233403 C 98.447425 0.00233403 100.9943 1.054418 102.869301 2.929418 C 104.744301 4.804418 105.796384 7.346085 105.796384 9.997127 L 105.796384 123.856517 C 105.796384 126.507559 104.744301 129.054434 102.869301 130.929434 C 100.9943 132.804435 98.447425 133.856518 95.796383 133.856518 L 9.999497 133.856518 C 7.348455 133.856518 4.801579 132.804435 2.926579 130.929434 C 1.051579 129.054434 -0.000504499 126.507559 -0.000504499 123.856517 L -0.000504499 9.997127 C -0.000504499 7.346085 1.051579 4.804418 2.926579 2.929418 C 4.801579 1.054418 7.348455 0.00233403 9.999497 0.00233403 Z M 9.999497 0.00233403 " stroke="#c6824b" stroke-width="20" stroke-opacity="1" stroke-miterlimit="4"/></g></g></svg>